<mxfile host="app.diagrams.net" agent="Mozilla/5.0 (Windows NT 10.0; Win64; x64) AppleWebKit/537.36 (KHTML, like Gecko) Chrome/132.0.0.0 Safari/537.36" version="26.0.11">
  <diagram name="Page-1" id="bOMGAiljpsrgAa3pAj72">
    <mxGraphModel dx="1400" dy="1843" grid="1" gridSize="10" guides="1" tooltips="1" connect="1" arrows="1" fold="1" page="1" pageScale="1" pageWidth="850" pageHeight="1100" math="0" shadow="0">
      <root>
        <mxCell id="0" />
        <mxCell id="1" parent="0" />
        <mxCell id="c--go3GaVP2PXI2ZTADo-1" value="Usuario" style="whiteSpace=wrap;html=1;align=center;" vertex="1" parent="1">
          <mxGeometry x="210" y="-169" width="100" height="40" as="geometry" />
        </mxCell>
        <mxCell id="c--go3GaVP2PXI2ZTADo-3" value="Clinica" style="whiteSpace=wrap;html=1;align=center;" vertex="1" parent="1">
          <mxGeometry x="390" y="70" width="100" height="40" as="geometry" />
        </mxCell>
        <mxCell id="c--go3GaVP2PXI2ZTADo-4" value="Medico&lt;div&gt;&lt;br&gt;&lt;/div&gt;" style="whiteSpace=wrap;html=1;align=center;" vertex="1" parent="1">
          <mxGeometry x="730" y="50" width="100" height="40" as="geometry" />
        </mxCell>
        <mxCell id="c--go3GaVP2PXI2ZTADo-5" value="&lt;div&gt;Especialidad&lt;/div&gt;" style="whiteSpace=wrap;html=1;align=center;" vertex="1" parent="1">
          <mxGeometry x="850" y="190" width="100" height="40" as="geometry" />
        </mxCell>
        <mxCell id="c--go3GaVP2PXI2ZTADo-6" value="Suscripcion" style="whiteSpace=wrap;html=1;align=center;" vertex="1" parent="1">
          <mxGeometry x="1120" y="610" width="100" height="40" as="geometry" />
        </mxCell>
        <mxCell id="c--go3GaVP2PXI2ZTADo-7" value="Pago" style="whiteSpace=wrap;html=1;align=center;" vertex="1" parent="1">
          <mxGeometry x="240" y="370" width="100" height="40" as="geometry" />
        </mxCell>
        <mxCell id="c--go3GaVP2PXI2ZTADo-8" value="ID_Rol" style="ellipse;whiteSpace=wrap;html=1;align=center;fontStyle=4;" vertex="1" parent="1">
          <mxGeometry x="88" y="-169" width="100" height="40" as="geometry" />
        </mxCell>
        <mxCell id="c--go3GaVP2PXI2ZTADo-9" value="Nombre" style="ellipse;whiteSpace=wrap;html=1;align=center;" vertex="1" parent="1">
          <mxGeometry x="96" y="-116" width="100" height="40" as="geometry" />
        </mxCell>
        <mxCell id="c--go3GaVP2PXI2ZTADo-10" value="Apellido" style="ellipse;whiteSpace=wrap;html=1;align=center;" vertex="1" parent="1">
          <mxGeometry x="96" y="-52" width="100" height="40" as="geometry" />
        </mxCell>
        <mxCell id="c--go3GaVP2PXI2ZTADo-11" value="ContraseÃ±a" style="ellipse;whiteSpace=wrap;html=1;align=center;" vertex="1" parent="1">
          <mxGeometry x="240" y="-40" width="100" height="40" as="geometry" />
        </mxCell>
        <mxCell id="c--go3GaVP2PXI2ZTADo-14" value="Correo" style="ellipse;whiteSpace=wrap;html=1;align=center;" vertex="1" parent="1">
          <mxGeometry x="210" y="-220" width="100" height="40" as="geometry" />
        </mxCell>
        <mxCell id="c--go3GaVP2PXI2ZTADo-16" value="ID_Usuarios" style="ellipse;whiteSpace=wrap;html=1;align=center;fontStyle=4;" vertex="1" parent="1">
          <mxGeometry x="230" y="-92" width="100" height="40" as="geometry" />
        </mxCell>
        <mxCell id="c--go3GaVP2PXI2ZTADo-19" value="" style="endArrow=none;html=1;rounded=0;" edge="1" parent="1">
          <mxGeometry relative="1" as="geometry">
            <mxPoint x="120" y="-140.5" as="sourcePoint" />
            <mxPoint x="153" y="-140" as="targetPoint" />
          </mxGeometry>
        </mxCell>
        <mxCell id="c--go3GaVP2PXI2ZTADo-21" value="Rol" style="whiteSpace=wrap;html=1;align=center;" vertex="1" parent="1">
          <mxGeometry x="630" y="-240" width="100" height="40" as="geometry" />
        </mxCell>
        <mxCell id="c--go3GaVP2PXI2ZTADo-22" value="ID_Rol" style="ellipse;whiteSpace=wrap;html=1;align=center;fontStyle=4;" vertex="1" parent="1">
          <mxGeometry x="580" y="-190" width="100" height="40" as="geometry" />
        </mxCell>
        <mxCell id="c--go3GaVP2PXI2ZTADo-23" value="Nombre" style="ellipse;whiteSpace=wrap;html=1;align=center;" vertex="1" parent="1">
          <mxGeometry x="720" y="-169" width="100" height="40" as="geometry" />
        </mxCell>
        <mxCell id="c--go3GaVP2PXI2ZTADo-24" value="ID_Clinica" style="ellipse;whiteSpace=wrap;html=1;align=center;fontStyle=4;" vertex="1" parent="1">
          <mxGeometry x="270" y="160" width="100" height="40" as="geometry" />
        </mxCell>
        <mxCell id="c--go3GaVP2PXI2ZTADo-26" value="Monto&lt;span style=&quot;color: rgba(0, 0, 0, 0); font-family: monospace; font-size: 0px; text-align: start; text-wrap-mode: nowrap;&quot;&gt;%3CmxGraphModel%3E%3Croot%3E%3CmxCell%20id%3D%220%22%2F%3E%3CmxCell%20id%3D%221%22%20parent%3D%220%22%2F%3E%3CmxCell%20id%3D%222%22%20value%3D%22Clinica_Tipo%22%20style%3D%22ellipse%3BwhiteSpace%3Dwrap%3Bhtml%3D1%3Balign%3Dcenter%3B%22%20vertex%3D%221%22%20parent%3D%221%22%3E%3CmxGeometry%20x%3D%22390%22%20y%3D%22160%22%20width%3D%22100%22%20height%3D%2240%22%20as%3D%22geometry%22%2F%3E%3C%2FmxCell%3E%3C%2Froot%3E%3C%2FmxGraphModel%3E&lt;/span&gt;" style="ellipse;whiteSpace=wrap;html=1;align=center;" vertex="1" parent="1">
          <mxGeometry x="180" y="500" width="100" height="40" as="geometry" />
        </mxCell>
        <mxCell id="c--go3GaVP2PXI2ZTADo-27" value="Telefono" style="ellipse;whiteSpace=wrap;html=1;align=center;" vertex="1" parent="1">
          <mxGeometry x="280" y="30" width="100" height="40" as="geometry" />
        </mxCell>
        <mxCell id="c--go3GaVP2PXI2ZTADo-29" value="Direccion" style="ellipse;whiteSpace=wrap;html=1;align=center;" vertex="1" parent="1">
          <mxGeometry x="290" y="90" width="100" height="40" as="geometry" />
        </mxCell>
        <mxCell id="c--go3GaVP2PXI2ZTADo-30" value="Nombre" style="ellipse;whiteSpace=wrap;html=1;align=center;" vertex="1" parent="1">
          <mxGeometry x="270" y="110" width="100" height="40" as="geometry" />
        </mxCell>
        <mxCell id="c--go3GaVP2PXI2ZTADo-31" value="ID_Medico" style="ellipse;whiteSpace=wrap;html=1;align=center;fontStyle=4;" vertex="1" parent="1">
          <mxGeometry x="860" y="20" width="100" height="40" as="geometry" />
        </mxCell>
        <mxCell id="c--go3GaVP2PXI2ZTADo-32" value="Nombre" style="ellipse;whiteSpace=wrap;html=1;align=center;" vertex="1" parent="1">
          <mxGeometry x="880" y="240" width="60" height="50" as="geometry" />
        </mxCell>
        <mxCell id="c--go3GaVP2PXI2ZTADo-33" value="ID_Especialidad" style="ellipse;whiteSpace=wrap;html=1;align=center;fontStyle=4;" vertex="1" parent="1">
          <mxGeometry x="570" y="10" width="100" height="40" as="geometry" />
        </mxCell>
        <mxCell id="c--go3GaVP2PXI2ZTADo-34" value="" style="endArrow=none;html=1;rounded=0;exitX=0;exitY=1;exitDx=0;exitDy=0;entryX=1;entryY=1;entryDx=0;entryDy=0;" edge="1" parent="1">
          <mxGeometry relative="1" as="geometry">
            <mxPoint x="584.882735980269" y="40.236728656647756" as="sourcePoint" />
            <mxPoint x="655.1172640197315" y="40.236728656647756" as="targetPoint" />
          </mxGeometry>
        </mxCell>
        <mxCell id="c--go3GaVP2PXI2ZTADo-35" value="ID_CLinica" style="ellipse;whiteSpace=wrap;html=1;align=center;fontStyle=4;" vertex="1" parent="1">
          <mxGeometry x="600" y="120" width="100" height="40" as="geometry" />
        </mxCell>
        <mxCell id="c--go3GaVP2PXI2ZTADo-37" value="ID_Especialidad" style="ellipse;whiteSpace=wrap;html=1;align=center;fontStyle=4;" vertex="1" parent="1">
          <mxGeometry x="730" y="200" width="100" height="40" as="geometry" />
        </mxCell>
        <mxCell id="c--go3GaVP2PXI2ZTADo-38" value="Nombre" style="ellipse;whiteSpace=wrap;html=1;align=center;" vertex="1" parent="1">
          <mxGeometry x="690" y="-10" width="100" height="40" as="geometry" />
        </mxCell>
        <mxCell id="c--go3GaVP2PXI2ZTADo-39" value="Cita" style="whiteSpace=wrap;html=1;align=center;" vertex="1" parent="1">
          <mxGeometry x="650" y="360" width="100" height="40" as="geometry" />
        </mxCell>
        <mxCell id="c--go3GaVP2PXI2ZTADo-41" value="ID_Suscripcion" style="ellipse;whiteSpace=wrap;html=1;align=center;fontStyle=4;" vertex="1" parent="1">
          <mxGeometry x="950" y="480" width="100" height="40" as="geometry" />
        </mxCell>
        <mxCell id="c--go3GaVP2PXI2ZTADo-42" value="ID_Paciente" style="ellipse;whiteSpace=wrap;html=1;align=center;fontStyle=4;" vertex="1" parent="1">
          <mxGeometry x="740" y="429" width="100" height="40" as="geometry" />
        </mxCell>
        <mxCell id="c--go3GaVP2PXI2ZTADo-44" value="ID_Pago" style="ellipse;whiteSpace=wrap;html=1;align=center;fontStyle=4;" vertex="1" parent="1">
          <mxGeometry x="325" y="440" width="100" height="40" as="geometry" />
        </mxCell>
        <mxCell id="c--go3GaVP2PXI2ZTADo-46" value="" style="endArrow=none;html=1;rounded=0;exitX=0;exitY=1;exitDx=0;exitDy=0;entryX=1;entryY=1;entryDx=0;entryDy=0;" edge="1" parent="1">
          <mxGeometry relative="1" as="geometry">
            <mxPoint x="615.882735980269" y="149.23672865664776" as="sourcePoint" />
            <mxPoint x="686.1172640197315" y="149.23672865664776" as="targetPoint" />
          </mxGeometry>
        </mxCell>
        <mxCell id="c--go3GaVP2PXI2ZTADo-47" value="" style="endArrow=none;html=1;rounded=0;exitX=0;exitY=1;exitDx=0;exitDy=0;entryX=1;entryY=1;entryDx=0;entryDy=0;" edge="1" parent="1">
          <mxGeometry relative="1" as="geometry">
            <mxPoint x="760.002735980269" y="459.99672865664775" as="sourcePoint" />
            <mxPoint x="830.2372640197315" y="459.99672865664775" as="targetPoint" />
          </mxGeometry>
        </mxCell>
        <mxCell id="c--go3GaVP2PXI2ZTADo-48" value="Fecha_Hora" style="ellipse;whiteSpace=wrap;html=1;align=center;" vertex="1" parent="1">
          <mxGeometry x="630" y="540" width="100" height="40" as="geometry" />
        </mxCell>
        <mxCell id="c--go3GaVP2PXI2ZTADo-49" value="Estado" style="ellipse;whiteSpace=wrap;html=1;align=center;" vertex="1" parent="1">
          <mxGeometry x="750" y="550" width="100" height="40" as="geometry" />
        </mxCell>
        <mxCell id="c--go3GaVP2PXI2ZTADo-50" value="ID_Suscripcion" style="ellipse;whiteSpace=wrap;html=1;align=center;fontStyle=4;" vertex="1" parent="1">
          <mxGeometry x="196" y="440" width="100" height="40" as="geometry" />
        </mxCell>
        <mxCell id="c--go3GaVP2PXI2ZTADo-52" value="" style="endArrow=none;html=1;rounded=0;exitX=0;exitY=1;exitDx=0;exitDy=0;entryX=1;entryY=1;entryDx=0;entryDy=0;" edge="1" parent="1">
          <mxGeometry relative="1" as="geometry">
            <mxPoint x="210.002735980269" y="470.3367286566477" as="sourcePoint" />
            <mxPoint x="280.23726401973147" y="470.3367286566477" as="targetPoint" />
          </mxGeometry>
        </mxCell>
        <mxCell id="c--go3GaVP2PXI2ZTADo-53" value="Clinica_Tipo" style="ellipse;whiteSpace=wrap;html=1;align=center;" vertex="1" parent="1">
          <mxGeometry x="400" y="170" width="100" height="40" as="geometry" />
        </mxCell>
        <mxCell id="c--go3GaVP2PXI2ZTADo-54" value="Fecha" style="ellipse;whiteSpace=wrap;html=1;align=center;" vertex="1" parent="1">
          <mxGeometry x="110" y="390" width="100" height="40" as="geometry" />
        </mxCell>
        <mxCell id="c--go3GaVP2PXI2ZTADo-55" value="Estado" style="ellipse;whiteSpace=wrap;html=1;align=center;" vertex="1" parent="1">
          <mxGeometry x="310" y="500" width="100" height="40" as="geometry" />
        </mxCell>
        <mxCell id="c--go3GaVP2PXI2ZTADo-57" value="ID_Cita" style="ellipse;whiteSpace=wrap;html=1;align=center;fontStyle=4;" vertex="1" parent="1">
          <mxGeometry x="800" y="360" width="100" height="40" as="geometry" />
        </mxCell>
      </root>
    </mxGraphModel>
  </diagram>
</mxfile>
